<?xml version="1.0" encoding="UTF-8"?>
<svg id="Layer_1" data-name="Layer 1" xmlns="http://www.w3.org/2000/svg" version="1.1" viewBox="0 0 24 24">
  <defs>
    <style>
      .cls-1 {
        fill: #f0f0f0;
        stroke-width: 0px;
      }
    </style>
  </defs>
  <path class="cls-1" d="M22,16l-7,6.7c-.8.8-1.9,1.2-3,1.2-1.1,0-2.2-.5-3-1.3l-6.9-6.8c-.3-.3-.3-.9,0-1.2.3-.3.9-.3,1.2,0l6.9,6.8c.3.3.6.5,1,.6V.9C11.1.4,11.5,0,12,0s.9.4.9.9v21.3c.4-.1.7-.3,1-.6l7-6.7c.3-.3.9-.3,1.2,0,.3.3.3.9,0,1.2h0ZM12,24s0,0,0,0h0Z"/>
</svg>