<?xml version="1.0" encoding="UTF-8"?>
<svg id="Transparant_Wit" xmlns="http://www.w3.org/2000/svg" viewBox="0 0 2381.98 997.4">
  <defs>
    <style>
      .cls-1 {
        fill: #f9fb00;
      }

      .cls-1, .cls-2, .cls-3, .cls-4, .cls-5, .cls-6, .cls-7, .cls-8, .cls-9 {
        stroke-width: 0px;
      }

      .cls-2 {
        fill: #d9d9d9;
      }

      .cls-3 {
        fill: #fb0102;
      }

      .cls-4 {
        fill: #404040;
      }

      .cls-5 {
        fill: #fff;
      }

      .cls-6 {
        fill: #02feff;
      }

      .cls-7 {
        fill: #fd00fb;
      }

      .cls-8 {
        fill: #0301fc;
      }

      .cls-9 {
        fill: #01ff00;
      }

      .cls-10 {
        fill: none;
        stroke: #fff;
        stroke-miterlimit: 10;
        stroke-width: 15px;
      }
    </style>
  </defs>
  <g id="DELABIE_MEDIA" data-name="DELABIE MEDIA">
    <path class="cls-5" d="M0,0h172.45c120.87,0,203.71,70.33,203.71,182.35s-82.84,182.35-203.71,182.35H0V0ZM168.28,282.38c62,0,103.68-36.99,103.68-100.03s-41.68-100.03-103.68-100.03h-65.12v200.06h65.12Z"/>
    <path class="cls-5" d="M723.14,284.98v79.71h-292.8V0h286.03v79.71h-183.91v61.48h162.03v77.11h-162.03v66.69h190.68Z"/>
    <path class="cls-5" d="M780.45,0h103.16v282.9h174.01v81.8h-277.17V0Z"/>
    <path class="cls-5" d="M1346.77,293.84h-154.21l-28.65,70.86h-105.24L1219.64,0h101.59l161.51,364.7h-107.33l-28.66-70.86ZM1316.55,217.78l-46.89-116.7-46.89,116.7h93.78Z"/>
    <path class="cls-5" d="M1858.91,264.67c0,63.04-52.1,100.03-150.05,100.03h-196.94V0h186.52c95.86,0,142.75,39.07,142.75,95.34,0,34.91-17.71,63.04-48.97,79.19,41.16,14.59,66.69,45.85,66.69,90.13ZM1614.04,74.5v70.33h70.86c34.39,0,52.1-11.98,52.1-35.43s-17.71-34.91-52.1-34.91h-70.86ZM1754.71,253.2c0-25.01-18.76-36.99-54.18-36.99h-86.49v73.98h86.49c35.43,0,54.18-11.98,54.18-36.99Z"/>
    <path class="cls-5" d="M1912.57,0h103.16v364.7h-103.16V0Z"/>
    <path class="cls-5" d="M2381.98,284.98v79.71h-292.8V0h286.03v79.71h-183.91v61.48h162.03v77.11h-162.03v66.69h190.68Z"/>
    <path class="cls-10" d="M617.12,989.9l-1.04-193.29-93.78,157.34h-45.85l-93.26-152.13v188.08h-95.34v-364.7h84.92l128.17,210.48,125.04-210.48h84.92l1.04,364.7h-94.82Z"/>
    <path class="cls-10" d="M1077.68,910.19v79.71h-292.8v-364.7h286.03v79.71h-183.91v61.48h162.03v77.11h-162.03v66.69h190.68Z"/>
    <path class="cls-10" d="M1134.99,625.2h172.45c120.87,0,203.71,70.33,203.71,182.35s-82.84,182.35-203.71,182.35h-172.45v-364.7ZM1303.27,907.58c62,0,103.68-36.99,103.68-100.03s-41.68-100.03-103.68-100.03h-65.12v200.06h65.12Z"/>
    <path class="cls-10" d="M1565.33,625.2h103.16v364.7h-103.16v-364.7Z"/>
    <path class="cls-10" d="M1986.29,919.04h-154.21l-28.66,70.86h-105.24l160.99-364.7h101.59l161.51,364.7h-107.33l-28.65-70.86ZM1956.07,842.98l-46.89-116.7-46.89,116.7h93.78Z"/>
  </g>
  <g id="Stripes">
    <g id="_Rasterherhaling_" data-name="&amp;lt;Rasterherhaling&amp;gt;">
      <rect class="cls-2" x="277.67" y="485.44" width="150" height="47.77"/>
    </g>
    <g id="_Rasterherhaling_-2" data-name="&amp;lt;Rasterherhaling&amp;gt;">
      <rect class="cls-1" x="497.67" y="485.44" width="150" height="47.77"/>
    </g>
    <g id="_Rasterherhaling_-3" data-name="&amp;lt;Rasterherhaling&amp;gt;">
      <rect class="cls-6" x="717.67" y="485.44" width="150" height="47.77"/>
    </g>
    <g id="_Rasterherhaling_-4" data-name="&amp;lt;Rasterherhaling&amp;gt;">
      <rect class="cls-9" x="937.67" y="485.44" width="150" height="47.77"/>
    </g>
    <g id="_Rasterherhaling_-5" data-name="&amp;lt;Rasterherhaling&amp;gt;">
      <rect class="cls-7" x="1157.67" y="485.44" width="150" height="47.77"/>
    </g>
    <g id="_Rasterherhaling_-6" data-name="&amp;lt;Rasterherhaling&amp;gt;">
      <rect class="cls-3" x="1377.67" y="485.44" width="150" height="47.77"/>
    </g>
    <g id="_Rasterherhaling_-7" data-name="&amp;lt;Rasterherhaling&amp;gt;">
      <rect class="cls-8" x="1597.67" y="485.44" width="150" height="47.77"/>
    </g>
    <g id="_Rasterherhaling_-8" data-name="&amp;lt;Rasterherhaling&amp;gt;">
      <rect class="cls-4" x="1817.67" y="485.44" width="150" height="47.77"/>
    </g>
  </g>
</svg>