<?xml version="1.0" encoding="UTF-8"?>
<svg id="Layer_1" data-name="Layer 1" xmlns="http://www.w3.org/2000/svg" version="1.1" viewBox="0 0 512 512">
  <defs>
    <style>
      .cls-1 {
        fill: #f0f0f0;
        stroke-width: 0px;
      }
    </style>
  </defs>
  <path class="cls-1" d="M490.7,234.7c-11.8,0-21.3-9.6-21.3-21.3,0-94.2-76.4-170.6-170.7-170.7-11.8,0-21.3-9.6-21.3-21.3S286.9,0,298.7,0c117.8.1,213.2,95.6,213.3,213.3,0,11.8-9.6,21.3-21.3,21.3h0ZM426.7,213.3c0-70.7-57.3-128-128-128s-21.3,9.6-21.3,21.3,9.6,21.3,21.3,21.3c47.1,0,85.3,38.2,85.3,85.3s9.6,21.3,21.3,21.3,21.3-9.6,21.3-21.3h.1ZM473.2,472.8l19.4-22.4c25.7-25.8,25.7-67.6,0-93.4-.7-.7-52-40.1-52-40.1-25.6-24.4-65.8-24.3-91.3.1l-40.7,34.3c-67-27.7-120.3-81.1-147.9-148.1l34.1-40.5c24.4-25.5,24.5-65.8.1-91.3,0,0-39.5-51.3-40.2-51.9-25.3-25.5-66.4-25.9-92.3-1l-24.5,21.3c-144.9,168.1,167.2,477.8,340.9,472.3,35.4.2,69.4-13.9,94.3-39.2h.1Z"/>
</svg>