<?xml version="1.0" encoding="UTF-8"?>
<svg id="Layer_1" data-name="Layer 1" xmlns="http://www.w3.org/2000/svg" version="1.1" viewBox="0 0 512 512">
  <defs>
    <style>
      .cls-1 {
        fill: #f0f0f0;
        stroke-width: 0px;
      }
    </style>
  </defs>
  <path class="cls-1" d="M426.7,170.7c-47.1,0-85.3-38.2-85.3-85.3S379.5,0,426.7,0s85.3,38.2,85.3,85.3-38.2,85.3-85.3,85.3ZM256,329c16.4,0,32.9-6.2,45.2-18.8l99.6-99.6c-58.2-11.9-102.2-63.6-102.2-125.4s.9-14.3,1.9-21.3H106.7c-38.6,0-72.1,20.7-90.9,51.4l195,195.2c12.4,12.4,28.8,18.8,45.2,18.8v-.2ZM464.2,207.6l-132.9,132.9c-20.7,20.7-48.2,31.1-75.5,31.1s-54.6-10.5-75.5-31.1L1.1,160.9c-.2,3.2-1.1,6.4-1.1,9.8v234.7c0,58.9,47.8,106.7,106.7,106.7h298.7c58.9,0,106.7-47.8,106.7-106.7l-.4-224.6c-13.7,12.2-29.7,21.3-47.4,26.9h0Z"/>
</svg>